<svg xmlns="http://www.w3.org/2000/svg" width="64" height="64" viewBox="0 0 64 64">
  <defs>
    <linearGradient id="cloud" x1="0" y1="0" x2="0" y2="1">
      <stop offset="0" stop-color="#C9D4DE"/>
      <stop offset="1" stop-color="#7F92A3"/>
    </linearGradient>
  </defs>
  <rect width="64" height="64" rx="14" fill="#000" fill-opacity="0"/>
  <path d="M18 34c-5 0-9-4-9-9s4-9 9-9c1 0 2 0 3 .3C24 12 28 9 33 9c7 0 13 6 13 13v.3c4 1 7 5 7 9 0 5-4 9-9 9H18z"
        fill="url(#cloud)" opacity="0.95"/>
  <g stroke="#5B82B8" stroke-width="3" stroke-linecap="round" opacity="0.9">
    <line x1="22" y1="40" x2="18" y2="48">
      <animate attributeName="y1" values="38;42;38" dur="1.2s" repeatCount="indefinite"/>
      <animate attributeName="y2" values="46;50;46" dur="1.2s" repeatCount="indefinite"/>
    </line>
    <line x1="34" y1="40" x2="30" y2="48">
      <animate attributeName="y1" values="40;44;40" dur="1.0s" repeatCount="indefinite"/>
      <animate attributeName="y2" values="48;52;48" dur="1.0s" repeatCount="indefinite"/>
    </line>
    <line x1="46" y1="40" x2="42" y2="48">
      <animate attributeName="y1" values="39;43;39" dur="1.1s" repeatCount="indefinite"/>
      <animate attributeName="y2" values="47;51;47" dur="1.1s" repeatCount="indefinite"/>
    </line>
  </g>
</svg>


